<svg width="16" height="16" viewBox="0 0 16 16" fill="none" xmlns="http://www.w3.org/2000/svg">
<path d="M10.519 5.28465C10.4531 5.21825 10.3748 5.16556 10.2885 5.1296C10.2022 5.09364 10.1096 5.07512 10.0161 5.07512C9.92257 5.07512 9.82999 5.09364 9.74367 5.1296C9.65735 5.16556 9.57901 5.21825 9.51316 5.28465L7.89108 6.91381L6.26899 5.28465C6.13561 5.15126 5.95471 5.07633 5.76608 5.07633C5.57745 5.07633 5.39654 5.15126 5.26316 5.28465C5.12978 5.41803 5.05485 5.59893 5.05485 5.78756C5.05485 5.97619 5.12978 6.1571 5.26316 6.29048L6.89233 7.91256L5.26316 9.53465C5.19677 9.60049 5.14407 9.67884 5.10811 9.76515C5.07215 9.85147 5.05364 9.94405 5.05364 10.0376C5.05364 10.1311 5.07215 10.2237 5.10811 10.31C5.14407 10.3963 5.19677 10.4746 5.26316 10.5405C5.32901 10.6069 5.40735 10.6596 5.49367 10.6955C5.57999 10.7315 5.67257 10.75 5.76608 10.75C5.85959 10.75 5.95217 10.7315 6.03849 10.6955C6.1248 10.6596 6.20315 10.6069 6.26899 10.5405L7.89108 8.91131L9.51316 10.5405C9.57901 10.6069 9.65735 10.6596 9.74367 10.6955C9.82999 10.7315 9.92257 10.75 10.0161 10.75C10.1096 10.75 10.2022 10.7315 10.2885 10.6955C10.3748 10.6596 10.4531 10.6069 10.519 10.5405C10.5854 10.4746 10.6381 10.3963 10.674 10.31C10.71 10.2237 10.7285 10.1311 10.7285 10.0376C10.7285 9.94405 10.71 9.85147 10.674 9.76515C10.6381 9.67884 10.5854 9.60049 10.519 9.53465L8.88983 7.91256L10.519 6.29048C10.5854 6.22463 10.6381 6.14629 10.674 6.05997C10.71 5.97365 10.7285 5.88107 10.7285 5.78756C10.7285 5.69405 10.71 5.60147 10.674 5.51515C10.6381 5.42884 10.5854 5.35049 10.519 5.28465ZM12.899 2.90465C12.2456 2.22811 11.464 1.68849 10.5998 1.31726C9.73558 0.94603 8.80611 0.750628 7.86559 0.742455C6.92507 0.734282 5.99234 0.913502 5.12182 1.26966C4.2513 1.62582 3.46044 2.15177 2.79536 2.81685C2.13029 3.48192 1.60433 4.27279 1.24817 5.1433C0.892018 6.01382 0.712798 6.94655 0.720971 7.88707C0.729143 8.82759 0.924546 9.75707 1.29578 10.6213C1.66701 11.4855 2.20663 12.2671 2.88316 12.9205C3.53658 13.597 4.31818 14.1366 5.18238 14.5079C6.04657 14.8791 6.97605 15.0745 7.91657 15.0827C8.85709 15.0908 9.78982 14.9116 10.6603 14.5555C11.5309 14.1993 12.3217 13.6734 12.9868 13.0083C13.6519 12.3432 14.1778 11.5523 14.534 10.6818C14.8901 9.8113 15.0694 8.87857 15.0612 7.93805C15.053 6.99753 14.8576 6.06806 14.4864 5.20386C14.1151 4.33967 13.5755 3.55806 12.899 2.90465ZM11.9002 11.9217C10.9738 12.8492 9.75438 13.4268 8.44981 13.5561C7.14524 13.6853 5.83621 13.3583 4.74574 12.6306C3.65527 11.9029 2.85083 10.8197 2.46948 9.56545C2.08812 8.31118 2.15344 6.9635 2.65431 5.75199C3.15518 4.54049 4.06061 3.54013 5.21633 2.92134C6.37206 2.30255 7.70659 2.10361 8.99254 2.35843C10.2785 2.61325 11.4363 3.30605 12.2687 4.31881C13.1012 5.33156 13.5567 6.60161 13.5577 7.91256C13.5603 8.65722 13.4151 9.39499 13.1306 10.0832C12.8461 10.7713 12.4279 11.3963 11.9002 11.9217Z" fill="#989DA6"/>
</svg>
