<svg width="15" height="16" viewBox="0 0 15 16" fill="none" xmlns="http://www.w3.org/2000/svg">
<path d="M10.3736 6.32982C10.263 6.2199 10.1134 6.1582 9.95747 6.1582C9.80156 6.1582 9.65197 6.2199 9.54139 6.32982L7.42264 8.41907L5.33339 6.32982C5.22281 6.2199 5.07323 6.1582 4.91731 6.1582C4.7614 6.1582 4.61181 6.2199 4.50124 6.32982C4.44592 6.38469 4.40201 6.44996 4.37205 6.52188C4.34209 6.5938 4.32666 6.67094 4.32666 6.74885C4.32666 6.82676 4.34209 6.9039 4.37205 6.97582C4.40201 7.04774 4.44592 7.11302 4.50124 7.16788L7.00361 9.67026C7.05847 9.72557 7.12375 9.76948 7.19567 9.79944C7.26759 9.82941 7.34473 9.84483 7.42264 9.84483C7.50055 9.84483 7.57769 9.82941 7.64961 9.79944C7.72153 9.76948 7.7868 9.72557 7.84167 9.67026L10.3736 7.16788C10.4289 7.11302 10.4728 7.04774 10.5027 6.97582C10.5327 6.9039 10.5481 6.82676 10.5481 6.74885C10.5481 6.67094 10.5327 6.5938 10.5027 6.52188C10.4728 6.44996 10.4289 6.38469 10.3736 6.32982Z" fill="#01A84D"/>
</svg>
