<svg width="15" height="18" viewBox="0 0 15 18" fill="none" xmlns="http://www.w3.org/2000/svg">
<path d="M7.47526 0.890625C5.70715 0.890625 4.01146 1.593 2.76122 2.84325C1.51097 4.09349 0.808594 5.78918 0.808594 7.55729C0.808594 12.0573 6.68359 17.1406 6.93359 17.3573C7.08454 17.4864 7.27663 17.5573 7.47526 17.5573C7.67389 17.5573 7.86598 17.4864 8.01693 17.3573C8.30859 17.1406 14.1419 12.0573 14.1419 7.55729C14.1419 5.78918 13.4395 4.09349 12.1893 2.84325C10.9391 1.593 9.24337 0.890625 7.47526 0.890625V0.890625ZM7.47526 15.599C5.70026 13.9323 2.47526 10.3406 2.47526 7.55729C2.47526 6.23121 3.00204 4.95944 3.93973 4.02176C4.87741 3.08408 6.14918 2.55729 7.47526 2.55729C8.80134 2.55729 10.0731 3.08408 11.0108 4.02176C11.9485 4.95944 12.4753 6.23121 12.4753 7.55729C12.4753 10.3406 9.25026 13.9406 7.47526 15.599ZM7.47526 4.22396C6.81599 4.22396 6.17152 4.41945 5.62336 4.78573C5.0752 5.152 4.64795 5.67259 4.39566 6.28168C4.14337 6.89077 4.07736 7.56099 4.20598 8.20759C4.33459 8.8542 4.65206 9.44814 5.11824 9.91431C5.58441 10.3805 6.17836 10.698 6.82496 10.8266C7.47156 10.9552 8.14179 10.8892 8.75087 10.6369C9.35996 10.3846 9.88055 9.95736 10.2468 9.40919C10.6131 8.86103 10.8086 8.21656 10.8086 7.55729C10.8086 6.67324 10.4574 5.82539 9.83228 5.20027C9.20716 4.57515 8.35932 4.22396 7.47526 4.22396ZM7.47526 9.22396C7.14563 9.22396 6.82339 9.12621 6.54931 8.94307C6.27523 8.75994 6.06161 8.49964 5.93546 8.1951C5.80932 7.89055 5.77631 7.55544 5.84062 7.23214C5.90493 6.90884 6.06366 6.61187 6.29675 6.37878C6.52984 6.14569 6.82681 5.98696 7.15011 5.92265C7.47341 5.85834 7.80852 5.89135 8.11307 6.01749C8.41761 6.14364 8.67791 6.35726 8.86104 6.63134C9.04418 6.90542 9.14193 7.22766 9.14193 7.55729C9.14193 7.99932 8.96633 8.42324 8.65377 8.7358C8.34121 9.04836 7.91729 9.22396 7.47526 9.22396Z" fill="#727272"/>
</svg>
