<svg width="75" height="21" viewBox="0 0 75 21" fill="none" xmlns="http://www.w3.org/2000/svg">
<path d="M18.1709 10.0249C16.5405 6.23941 13.4734 3.89062 10.1641 3.89062C6.8548 3.89062 3.78766 6.23941 2.15723 10.0249C2.11278 10.1267 2.08984 10.2367 2.08984 10.3478C2.08984 10.4589 2.11278 10.5688 2.15723 10.6706C3.78766 14.4561 6.8548 16.8049 10.1641 16.8049C13.4734 16.8049 16.5405 14.4561 18.1709 10.6706C18.2154 10.5688 18.2383 10.4589 18.2383 10.3478C18.2383 10.2367 18.2154 10.1267 18.1709 10.0249ZM10.1641 15.1906C7.60544 15.1906 5.18401 13.3423 3.78766 10.3478C5.18401 7.35327 7.60544 5.50491 10.1641 5.50491C12.7227 5.50491 15.1442 7.35327 16.5405 10.3478C15.1442 13.3423 12.7227 15.1906 10.1641 15.1906ZM10.1641 7.1192C9.52553 7.1192 8.90132 7.30855 8.37039 7.66331C7.83945 8.01807 7.42564 8.5223 7.18127 9.11225C6.93691 9.70219 6.87297 10.3513 6.99755 10.9776C7.12212 11.6039 7.42962 12.1792 7.88114 12.6307C8.33266 13.0822 8.90794 13.3897 9.53422 13.5143C10.1605 13.6389 10.8097 13.5749 11.3996 13.3306C11.9896 13.0862 12.4938 12.6724 12.8485 12.1415C13.2033 11.6105 13.3927 10.9863 13.3927 10.3478C13.3927 9.4915 13.0525 8.6703 12.447 8.06482C11.8416 7.45935 11.0204 7.1192 10.1641 7.1192ZM10.1641 11.9621C9.84481 11.9621 9.5327 11.8674 9.26724 11.69C9.00177 11.5126 8.79486 11.2605 8.67268 10.9655C8.5505 10.6706 8.51853 10.346 8.58082 10.0328C8.64311 9.7197 8.79685 9.43206 9.02261 9.2063C9.24838 8.98053 9.53601 8.82679 9.84915 8.7645C10.1623 8.70221 10.4869 8.73418 10.7818 8.85636C11.0768 8.97854 11.3289 9.18545 11.5063 9.45092C11.6837 9.71639 11.7784 10.0285 11.7784 10.3478C11.7784 10.7759 11.6083 11.1865 11.3056 11.4892C11.0028 11.792 10.5922 11.9621 10.1641 11.9621Z" fill="#989DA6"/>
<path d="M43.0231 6.48094C42.948 6.40529 42.8588 6.34524 42.7604 6.30426C42.6621 6.26328 42.5566 6.24219 42.45 6.24219C42.3435 6.24219 42.238 6.26328 42.1396 6.30426C42.0412 6.34524 41.952 6.40529 41.8769 6.48094L35.8637 12.5022L33.3374 9.9678C33.2595 9.89254 33.1675 9.83336 33.0667 9.79365C32.9659 9.75394 32.8583 9.73446 32.75 9.73633C32.6417 9.73821 32.5348 9.76139 32.4355 9.80457C32.3362 9.84775 32.2463 9.91007 32.171 9.98798C32.0958 10.0659 32.0366 10.1578 31.9969 10.2586C31.9572 10.3594 31.9377 10.467 31.9396 10.5753C31.9415 10.6836 31.9646 10.7905 32.0078 10.8898C32.051 10.9892 32.1133 11.079 32.1912 11.1543L35.2906 14.2537C35.3657 14.3294 35.455 14.3894 35.5533 14.4304C35.6517 14.4714 35.7572 14.4925 35.8637 14.4925C35.9703 14.4925 36.0758 14.4714 36.1741 14.4304C36.2725 14.3894 36.3618 14.3294 36.4368 14.2537L43.0231 7.66744C43.105 7.59186 43.1704 7.50012 43.2151 7.39802C43.2598 7.29592 43.2829 7.18566 43.2829 7.07419C43.2829 6.96272 43.2598 6.85246 43.2151 6.75036C43.1704 6.64825 43.105 6.55652 43.0231 6.48094Z" fill="#989DA6"/>
<path d="M66.0992 10.5227C66.5299 10.1499 66.8753 9.68879 67.1121 9.17072C67.3488 8.65264 67.4714 8.0897 67.4714 7.52009C67.4714 6.44975 67.0462 5.42325 66.2893 4.66641C65.5325 3.90957 64.506 3.48438 63.4357 3.48438C62.3653 3.48438 61.3388 3.90957 60.582 4.66641C59.8251 5.42325 59.3999 6.44975 59.3999 7.52009C59.3999 8.0897 59.5225 8.65264 59.7592 9.17072C59.996 9.68879 60.3414 10.1499 60.7721 10.5227C59.6422 11.0343 58.6836 11.8605 58.0108 12.9026C57.3381 13.9446 56.9797 15.1583 56.9785 16.3987C56.9785 16.6127 57.0636 16.818 57.2149 16.9694C57.3663 17.1208 57.5716 17.2058 57.7857 17.2058C57.9997 17.2058 58.205 17.1208 58.3564 16.9694C58.5078 16.818 58.5928 16.6127 58.5928 16.3987C58.5928 15.1143 59.103 13.8825 60.0112 12.9742C60.9195 12.066 62.1513 11.5558 63.4357 11.5558C64.7201 11.5558 65.9519 12.066 66.8601 12.9742C67.7683 13.8825 68.2785 15.1143 68.2785 16.3987C68.2785 16.6127 68.3636 16.818 68.5149 16.9694C68.6663 17.1208 68.8716 17.2058 69.0857 17.2058C69.2997 17.2058 69.505 17.1208 69.6564 16.9694C69.8078 16.818 69.8928 16.6127 69.8928 16.3987C69.8916 15.1583 69.5332 13.9446 68.8605 12.9026C68.1877 11.8605 67.2291 11.0343 66.0992 10.5227V10.5227ZM63.4357 9.94152C62.9567 9.94152 62.4886 9.7995 62.0904 9.53343C61.6922 9.26736 61.3818 8.88919 61.1986 8.44673C61.0153 8.00427 60.9673 7.5174 61.0608 7.04769C61.1542 6.57798 61.3848 6.14652 61.7235 5.80788C62.0621 5.46924 62.4936 5.23862 62.9633 5.14519C63.433 5.05176 63.9198 5.09971 64.3623 5.28298C64.8048 5.46625 65.1829 5.77661 65.449 6.17482C65.7151 6.57302 65.8571 7.04118 65.8571 7.52009C65.8571 8.16229 65.602 8.77819 65.1479 9.2323C64.6938 9.6864 64.0779 9.94152 63.4357 9.94152ZM72.2416 10.3451L72.8873 9.70745C72.9626 9.63219 73.0223 9.54285 73.063 9.44452C73.1037 9.34619 73.1247 9.2408 73.1247 9.13438C73.1247 9.02795 73.1037 8.92256 73.063 8.82423C73.0223 8.7259 72.9626 8.63656 72.8873 8.5613C72.812 8.48605 72.7227 8.42635 72.6244 8.38562C72.526 8.34489 72.4207 8.32393 72.3142 8.32393C72.2078 8.32393 72.1024 8.34489 72.0041 8.38562C71.9058 8.42635 71.8164 8.48605 71.7412 8.5613L71.1035 9.20702L70.4659 8.5613C70.3906 8.48605 70.3013 8.42635 70.2029 8.38562C70.1046 8.34489 69.9992 8.32393 69.8928 8.32393C69.6779 8.32393 69.4717 8.40932 69.3197 8.5613C69.2445 8.63656 69.1848 8.7259 69.144 8.82423C69.1033 8.92256 69.0824 9.02795 69.0824 9.13438C69.0824 9.34932 69.1677 9.55546 69.3197 9.70745L69.9654 10.3451L69.3197 10.9827C69.2441 11.0578 69.184 11.147 69.1431 11.2454C69.1021 11.3438 69.081 11.4493 69.081 11.5558C69.081 11.6624 69.1021 11.7679 69.1431 11.8662C69.184 11.9646 69.2441 12.0538 69.3197 12.1289C69.3948 12.2045 69.484 12.2646 69.5824 12.3056C69.6808 12.3465 69.7863 12.3676 69.8928 12.3676C69.9994 12.3676 70.1049 12.3465 70.2032 12.3056C70.3016 12.2646 70.3908 12.2045 70.4659 12.1289L71.1035 11.4832L71.7412 12.1289C71.8162 12.2045 71.9055 12.2646 72.0038 12.3056C72.1022 12.3465 72.2077 12.3676 72.3142 12.3676C72.4208 12.3676 72.5263 12.3465 72.6246 12.3056C72.723 12.2646 72.8123 12.2045 72.8873 12.1289C72.963 12.0538 73.023 11.9646 73.064 11.8662C73.105 11.7679 73.1261 11.6624 73.1261 11.5558C73.1261 11.4493 73.105 11.3438 73.064 11.2454C73.023 11.147 72.963 11.0578 72.8873 10.9827L72.2416 10.3451Z" fill="#989DA6"/>
</svg>
