<svg width="15" height="15" viewBox="0 0 15 15" fill="none" xmlns="http://www.w3.org/2000/svg">
<path d="M7.7819 1.78906C6.54422 1.78906 5.35724 2.28073 4.48207 3.1559C3.6069 4.03107 3.11523 5.21805 3.11523 6.45573C3.11523 9.60573 7.22773 13.1641 7.40273 13.3157C7.5084 13.4061 7.64286 13.4558 7.7819 13.4558C7.92094 13.4558 8.05541 13.4061 8.16107 13.3157C8.36523 13.1641 12.4486 9.60573 12.4486 6.45573C12.4486 5.21805 11.9569 4.03107 11.0817 3.1559C10.2066 2.28073 9.01958 1.78906 7.7819 1.78906ZM7.7819 12.0849C6.5394 10.9182 4.2819 8.40406 4.2819 6.45573C4.2819 5.52747 4.65065 4.63723 5.30703 3.98086C5.9634 3.32448 6.85364 2.95573 7.7819 2.95573C8.71016 2.95573 9.6004 3.32448 10.2568 3.98086C10.9132 4.63723 11.2819 5.52747 11.2819 6.45573C11.2819 8.40406 9.0244 10.9241 7.7819 12.0849ZM7.7819 4.1224C7.32041 4.1224 6.86929 4.25924 6.48557 4.51563C6.10186 4.77202 5.80279 5.13644 5.62618 5.5628C5.44958 5.98916 5.40337 6.45832 5.4934 6.91094C5.58343 7.36356 5.80566 7.77932 6.13198 8.10565C6.45831 8.43197 6.87407 8.6542 7.32669 8.74423C7.77931 8.83426 8.24847 8.78805 8.67483 8.61145C9.10119 8.43484 9.46561 8.13577 9.722 7.75206C9.97839 7.36835 10.1152 6.91722 10.1152 6.45573C10.1152 5.83689 9.8694 5.2434 9.43182 4.80581C8.99423 4.36823 8.40074 4.1224 7.7819 4.1224ZM7.7819 7.6224C7.55116 7.6224 7.32559 7.55397 7.13374 7.42578C6.94188 7.29758 6.79234 7.11537 6.70404 6.90219C6.61574 6.68901 6.59264 6.45444 6.63765 6.22812C6.68267 6.00181 6.79378 5.79393 6.95694 5.63077C7.1201 5.46761 7.32798 5.3565 7.5543 5.31148C7.78061 5.26646 8.01518 5.28957 8.22836 5.37787C8.44155 5.46617 8.62375 5.61571 8.75195 5.80756C8.88014 5.99942 8.94857 6.22498 8.94857 6.45573C8.94857 6.76515 8.82565 7.06189 8.60686 7.28069C8.38807 7.49948 8.09132 7.6224 7.7819 7.6224Z" fill="#727272"/>
</svg>
