<svg width="24" height="24" viewBox="0 0 24 24" fill="none" xmlns="http://www.w3.org/2000/svg">
<path d="M19 6.00021H16V5.00021C16 4.46978 15.7893 3.96107 15.4142 3.586C15.0391 3.21093 14.5304 3.00021 14 3.00021H10C9.46957 3.00021 8.96086 3.21093 8.58579 3.586C8.21071 3.96107 8 4.46978 8 5.00021V6.00021H5C4.20435 6.00021 3.44129 6.31628 2.87868 6.87889C2.31607 7.4415 2 8.20456 2 9.00021V18.0002C2 18.7959 2.31607 19.5589 2.87868 20.1215C3.44129 20.6841 4.20435 21.0002 5 21.0002H19C19.7956 21.0002 20.5587 20.6841 21.1213 20.1215C21.6839 19.5589 22 18.7959 22 18.0002V9.00021C22 8.20456 21.6839 7.4415 21.1213 6.87889C20.5587 6.31628 19.7956 6.00021 19 6.00021ZM10 5.00021H14V6.00021H10V5.00021ZM20 18.0002C20 18.2654 19.8946 18.5198 19.7071 18.7073C19.5196 18.8949 19.2652 19.0002 19 19.0002H5C4.73478 19.0002 4.48043 18.8949 4.29289 18.7073C4.10536 18.5198 4 18.2654 4 18.0002V12.3902L8.68 14.0002C8.78618 14.0146 8.89382 14.0146 9 14.0002H15C15.1084 13.9982 15.2161 13.9814 15.32 13.9502L20 12.3902V18.0002ZM20 10.2802L14.84 12.0002H9.16L4 10.2802V9.00021C4 8.735 4.10536 8.48064 4.29289 8.29311C4.48043 8.10557 4.73478 8.00021 5 8.00021H19C19.2652 8.00021 19.5196 8.10557 19.7071 8.29311C19.8946 8.48064 20 8.735 20 9.00021V10.2802Z" fill="#262626"/>
</svg>
